<?xml version="1.0" standalone="no"?>
<!DOCTYPE svg PUBLIC "-//W3C//DTD SVG 20010904//EN"
 "http://www.w3.org/TR/2001/REC-SVG-20010904/DTD/svg10.dtd">
<svg version="1.0" xmlns="http://www.w3.org/2000/svg"
 width="2000.000000pt" height="308.000000pt" viewBox="0 0 2000.000000 308.000000"
 preserveAspectRatio="xMidYMid meet">

<g transform="translate(0.000000,308.000000) scale(0.100000,-0.100000)"
fill="red" stroke="none">
<path d="M765 3069 c-242 -35 -433 -125 -563 -263 -107 -115 -147 -228 -140
-395 6 -145 62 -266 186 -401 81 -90 168 -146 492 -320 367 -197 402 -222 416
-295 8 -44 -6 -84 -38 -108 -60 -45 -255 -28 -478 40 -401 123 -449 131 -530
91 -91 -46 -116 -160 -60 -272 52 -102 205 -227 384 -312 242 -114 501 -159
828 -142 482 24 755 211 814 558 54 317 -60 508 -436 732 -47 28 -173 98 -280
156 -281 151 -368 213 -401 287 -40 86 -14 172 62 213 40 22 53 23 149 19 123
-6 176 -22 365 -109 292 -135 286 -133 352 -133 55 0 65 3 92 29 83 79 62 212
-51 332 -130 137 -358 245 -612 289 -98 17 -445 19 -551 4z"/>
<path d="M15309 3045 c-74 -24 -140 -74 -176 -134 -61 -102 -63 -126 -62 -783
1 -813 10 -1112 38 -1200 27 -84 89 -156 163 -189 45 -20 69 -23 163 -24 178
0 264 44 325 168 59 121 60 135 60 1057 0 583 -3 855 -11 892 -23 106 -76 171
-168 204 -66 23 -271 29 -332 9z"/>
<path d="M2925 2901 c-198 -52 -366 -165 -394 -267 -6 -22 -11 -114 -11 -206
0 -156 -1 -168 -18 -168 -41 0 -124 -33 -157 -61 -18 -16 -39 -46 -46 -66 -16
-50 -13 -145 6 -182 22 -44 82 -80 153 -93 l62 -12 0 -264 c0 -188 5 -295 16
-369 51 -345 203 -483 549 -500 92 -4 136 -1 189 11 86 20 192 76 256 133 149
134 261 465 188 558 -37 48 -130 71 -178 45 -11 -6 -38 -42 -61 -81 -45 -79
-83 -104 -139 -92 -61 12 -65 29 -68 310 l-3 253 88 0 c241 0 333 53 333 189
0 164 -80 221 -311 221 l-106 0 -5 253 c-8 368 -23 400 -186 404 -58 2 -110
-4 -157 -16z"/>
<path d="M6358 2355 c-308 -49 -567 -231 -677 -478 -80 -179 -99 -437 -45
-617 84 -286 363 -501 720 -555 363 -55 674 37 884 262 92 98 140 185 140 255
0 43 -4 54 -34 84 -47 47 -86 46 -217 -10 -131 -56 -248 -79 -404 -80 -102 0
-129 3 -176 22 -74 29 -141 89 -173 155 l-27 52 295 7 c393 9 472 28 597 145
70 66 101 143 101 252 -1 242 -146 414 -404 480 -161 41 -408 52 -580 26z
m253 -291 c50 -25 74 -91 74 -204 0 -109 -19 -161 -64 -179 -16 -7 -77 -11
-157 -9 l-130 3 13 76 c23 141 83 260 152 306 40 27 71 29 112 7z"/>
<path d="M8146 2354 c-186 -45 -355 -220 -431 -446 -71 -215 -73 -547 -4 -758
54 -168 178 -325 307 -393 103 -54 184 -70 322 -64 144 7 264 36 378 93 l87
44 35 -34 c70 -68 164 -92 318 -83 202 12 288 72 321 225 7 35 11 230 11 590
0 557 -2 590 -43 668 -48 92 -174 148 -337 148 -88 1 -101 -2 -162 -32 -63
-31 -92 -56 -128 -111 l-16 -23 -82 55 c-45 30 -110 66 -145 80 -136 55 -308
71 -431 41z m520 -423 c23 -10 53 -34 68 -53 l26 -35 0 -317 c0 -306 -1 -319
-21 -347 -47 -66 -148 -88 -210 -46 -67 45 -129 228 -129 381 1 186 70 379
151 419 44 21 64 21 115 -2z"/>
<path d="M14009 2355 c-89 -18 -202 -66 -285 -122 -62 -42 -69 -44 -79 -28
-25 43 -73 90 -110 106 -59 25 -188 42 -264 34 -170 -18 -276 -105 -317 -260
-11 -40 -14 -212 -14 -840 0 -452 5 -831 10 -885 15 -141 42 -214 104 -275 66
-66 124 -85 255 -85 138 0 190 18 261 88 95 95 119 203 120 520 0 105 2 192 4
192 2 0 33 -13 68 -30 147 -66 371 -97 510 -71 220 43 397 225 473 485 54 187
56 462 5 661 -54 212 -184 391 -342 471 -102 52 -258 67 -399 39z m-113 -424
c48 -29 83 -82 112 -168 24 -72 26 -92 27 -243 0 -135 -3 -175 -19 -220 -29
-86 -66 -149 -101 -170 -61 -37 -149 -19 -200 42 l-25 30 0 324 0 324 36 40
c53 59 116 74 170 41z"/>
<path d="M16884 2356 c-361 -59 -629 -273 -722 -577 -11 -37 -26 -113 -33
-169 -20 -176 3 -324 74 -470 34 -70 57 -101 132 -175 193 -192 458 -284 785
-272 270 10 476 99 639 273 94 100 146 203 138 271 -4 37 -12 54 -36 75 -43
38 -96 37 -181 -3 -154 -73 -396 -114 -531 -91 -117 20 -196 73 -250 166 -16
28 -29 54 -29 57 0 3 134 9 298 12 320 7 377 14 480 64 81 40 163 124 190 196
26 68 29 184 8 262 -50 187 -204 316 -436 366 -123 26 -408 34 -526 15z m240
-290 c52 -22 78 -86 79 -194 1 -100 -14 -153 -50 -182 -23 -18 -40 -20 -165
-20 l-139 0 6 38 c22 126 73 262 118 311 29 31 77 61 100 61 10 0 33 -6 51
-14z"/>
<path d="M4343 2339 c-141 -27 -234 -126 -263 -279 -14 -72 -13 -1005 1 -1090
29 -183 109 -249 309 -258 200 -8 321 37 372 138 41 81 48 157 48 562 l0 368
27 17 c18 12 46 18 83 18 51 0 61 -4 133 -55 l79 -55 91 0 c102 0 149 17 198
72 61 67 80 124 80 234 0 113 -23 181 -81 240 -129 132 -383 127 -596 -12
l-62 -40 -41 44 c-49 53 -114 83 -208 97 -79 11 -111 11 -170 -1z"/>
<path d="M10114 2340 c-104 -22 -186 -88 -230 -185 -41 -90 -46 -162 -41 -687
4 -533 5 -547 61 -642 50 -86 154 -122 331 -113 135 6 212 32 267 88 66 69 71
98 77 504 6 337 7 363 27 405 28 62 75 100 122 100 52 0 102 -30 126 -76 20
-37 21 -60 26 -439 l5 -400 25 -50 c48 -97 159 -141 332 -133 122 6 178 31
225 101 64 95 82 201 93 552 10 304 19 356 75 412 25 25 41 33 70 33 52 0 101
-26 127 -69 23 -35 23 -42 28 -441 l5 -405 25 -45 c58 -103 175 -147 369 -138
120 6 160 20 219 72 77 70 108 190 123 485 11 198 6 405 -12 561 -51 440 -242
570 -703 479 -125 -25 -246 -74 -344 -139 -69 -46 -78 -50 -87 -34 -84 145
-234 215 -430 199 -176 -15 -282 -47 -404 -123 -41 -25 -76 -41 -78 -35 -18
53 -107 124 -184 147 -62 19 -193 27 -245 16z"/>
<path d="M18384 2306 c-82 -41 -155 -113 -186 -183 -29 -66 -22 -165 19 -254
34 -75 128 -180 255 -286 43 -36 78 -68 78 -72 0 -4 -46 -43 -102 -88 -137
-108 -259 -229 -282 -277 -53 -113 75 -315 253 -400 57 -27 77 -31 147 -31
132 0 214 46 392 219 l113 110 107 -105 c59 -58 126 -120 149 -138 64 -49 148
-83 217 -88 237 -18 507 268 418 443 -24 47 -151 171 -285 277 l-98 78 53 46
c91 79 226 223 267 284 36 54 61 128 61 183 0 12 -7 47 -16 76 -13 43 -29 67
-82 120 -91 90 -144 115 -247 115 -144 0 -214 -48 -460 -319 l-90 -98 -112
128 c-197 226 -282 284 -418 292 -76 4 -84 2 -151 -32z"/>
</g>
</svg>
